<?xml version="1.0" encoding="UTF-8"?>
<svg id="Layer_2" data-name="Layer 2" xmlns="http://www.w3.org/2000/svg" viewBox="0 0 6387.99 222.52">
  <g id="Layer_2-2" data-name="Layer 2">
    <g>
      <rect x="907.76" y="0" width="45.94" height="222.52" style="stroke-width: 0px;"/>
      <rect x="1292.42" y="0" width="15.63" height="222.52" style="stroke-width: 0px;"/>
      <rect x="1315.36" y="0" width="15.63" height="222.52" style="stroke-width: 0px;"/>
      <rect x="1338.29" y="0" width="15.63" height="222.52" style="stroke-width: 0px;"/>
      <rect x="1361.63" y="0" width="15.63" height="222.52" style="stroke-width: 0px;"/>
      <rect x="1384.36" y="0" width="15.63" height="222.52" style="stroke-width: 0px;"/>
      <rect x="68.14" width="15.63" height="222.52" style="stroke-width: 0px;"/>
      <rect x="90.93" width="15.63" height="222.52" style="stroke-width: 0px;"/>
      <rect x="113.9" width="15.63" height="222.52" style="stroke-width: 0px;"/>
      <rect width="60.31" height="222.52" style="stroke-width: 0px;"/>
      <rect x="136.8" width="61.28" height="222.52" style="stroke-width: 0px;"/>
      <rect x="416" y="0" width="45.94" height="222.52" style="stroke-width: 0px;"/>
      <rect x="491.77" y="0" width="45.94" height="222.52" style="stroke-width: 0px;"/>
      <rect x="568.14" y="0" width="45.94" height="222.52" style="stroke-width: 0px;"/>
      <rect x="2570.43" y="0" width="45.94" height="222.52" style="stroke-width: 0px;"/>
      <rect x="2955.09" y="0" width="15.63" height="222.52" style="stroke-width: 0px;"/>
      <rect x="2978.02" y="0" width="15.63" height="222.52" style="stroke-width: 0px;"/>
      <rect x="3000.96" y="0" width="15.63" height="222.52" style="stroke-width: 0px;"/>
      <rect x="3024.29" y="0" width="15.63" height="222.52" style="stroke-width: 0px;"/>
      <rect x="3047.03" y="0" width="15.63" height="222.52" style="stroke-width: 0px;"/>
      <rect x="1730.81" y="0" width="15.63" height="222.52" style="stroke-width: 0px;"/>
      <rect x="1753.59" y="0" width="15.63" height="222.52" style="stroke-width: 0px;"/>
      <rect x="1776.56" y="0" width="15.63" height="222.52" style="stroke-width: 0px;"/>
      <rect x="1662.67" y="0" width="60.31" height="222.52" style="stroke-width: 0px;"/>
      <rect x="1799.47" y="0" width="61.28" height="222.52" style="stroke-width: 0px;"/>
      <rect x="2078.66" y="0" width="45.94" height="222.52" style="stroke-width: 0px;"/>
      <rect x="2154.43" y="0" width="45.94" height="222.52" style="stroke-width: 0px;"/>
      <rect x="2230.8" y="0" width="45.94" height="222.52" style="stroke-width: 0px;"/>
      <rect x="4233.1" y="0" width="45.94" height="222.52" style="stroke-width: 0px;"/>
      <rect x="4617.75" y="0" width="15.63" height="222.52" style="stroke-width: 0px;"/>
      <rect x="4640.69" y="0" width="15.63" height="222.52" style="stroke-width: 0px;"/>
      <rect x="4663.62" y="0" width="15.63" height="222.52" style="stroke-width: 0px;"/>
      <rect x="4686.96" y="0" width="15.63" height="222.52" style="stroke-width: 0px;"/>
      <rect x="4709.7" y="0" width="15.63" height="222.52" style="stroke-width: 0px;"/>
      <rect x="3393.48" y="0" width="15.63" height="222.52" style="stroke-width: 0px;"/>
      <rect x="3416.26" y="0" width="15.63" height="222.52" style="stroke-width: 0px;"/>
      <rect x="3439.23" y="0" width="15.63" height="222.52" style="stroke-width: 0px;"/>
      <rect x="3325.33" y="0" width="60.31" height="222.52" style="stroke-width: 0px;"/>
      <rect x="3462.13" y="0" width="61.28" height="222.52" style="stroke-width: 0px;"/>
      <rect x="3741.33" y="0" width="45.94" height="222.52" style="stroke-width: 0px;"/>
      <rect x="3817.1" y="0" width="45.94" height="222.52" style="stroke-width: 0px;"/>
      <rect x="3893.47" y="0" width="45.94" height="222.52" style="stroke-width: 0px;"/>
      <rect x="5895.76" y="0" width="45.94" height="222.52" style="stroke-width: 0px;"/>
      <rect x="6280.42" y="0" width="15.63" height="222.52" style="stroke-width: 0px;"/>
      <rect x="6303.35" y="0" width="15.63" height="222.52" style="stroke-width: 0px;"/>
      <rect x="6326.29" y="0" width="15.63" height="222.52" style="stroke-width: 0px;"/>
      <rect x="6349.62" y="0" width="15.63" height="222.52" style="stroke-width: 0px;"/>
      <rect x="6372.36" y="0" width="15.63" height="222.52" style="stroke-width: 0px;"/>
      <rect x="5056.14" y="0" width="15.63" height="222.52" style="stroke-width: 0px;"/>
      <rect x="5078.92" y="0" width="15.63" height="222.52" style="stroke-width: 0px;"/>
      <rect x="5101.89" y="0" width="15.63" height="222.52" style="stroke-width: 0px;"/>
      <rect x="4988" y="0" width="60.31" height="222.52" style="stroke-width: 0px;"/>
      <rect x="5124.8" y="0" width="61.28" height="222.52" style="stroke-width: 0px;"/>
      <rect x="5403.99" y="0" width="45.94" height="222.52" style="stroke-width: 0px;"/>
      <rect x="5479.76" y="0" width="45.94" height="222.52" style="stroke-width: 0px;"/>
      <rect x="5556.13" y="0" width="45.94" height="222.52" style="stroke-width: 0px;"/>
    </g>
  </g>
</svg>