<?xml version="1.0" encoding="utf-8"?>
<!-- Generator: Adobe Illustrator 26.1.0, SVG Export Plug-In . SVG Version: 6.00 Build 0)  -->
<svg version="1.1" id="Laag_1" xmlns="http://www.w3.org/2000/svg" xmlns:xlink="http://www.w3.org/1999/xlink" x="0px" y="0px"
	 viewBox="0 0 64.2 64.2" style="enable-background:new 0 0 64.2 64.2;" xml:space="preserve">
<style type="text/css">
	.st0{fill:#FF8552;}
	.st1{fill:#39B000;}
	.st2{fill:#2332A0;}
	.st3{fill:#FF89E7;}
	.st4{fill:#6CCCE7;}
</style>
<path class="st0" d="M-85.1-107.7h39.7v61.4h-39.7V-107.7z"/>
<path class="st1" d="M-39.7-107.7H0v61.4h-39.7V-107.7z"/>
<path class="st2" d="M8.7-107.7h39.7v61.4H8.7L8.7-107.7z"/>
<path class="st3" d="M53.8-107.7h39.7v61.4H53.8V-107.7z"/>
<path class="st4" d="M102.4-107.7h39.7v61.4h-39.7L102.4-107.7z"/>
<g>
	<path class="st0" d="M32.1,1.9c16.7,0,30.2,13.5,30.2,30.2S48.7,62.3,32.1,62.3S1.9,48.8,1.9,32.1S15.4,1.9,32.1,1.9 M32.1,0
		C14.4,0,0,14.4,0,32.1c0,17.7,14.4,32.1,32.1,32.1c17.7,0,32.1-14.4,32.1-32.1C64.2,14.4,49.8,0,32.1,0L32.1,0z"/>
</g>
<g>
	<path class="st0" d="M32.1,6.5c14.1,0,25.6,11.5,25.6,25.6c0,14.1-11.5,25.6-25.6,25.6c-14.1,0-25.6-11.5-25.6-25.6
		C6.5,18,17.9,6.5,32.1,6.5 M32.1,4.6C16.9,4.6,4.6,16.9,4.6,32.1c0,15.2,12.3,27.5,27.5,27.5s27.5-12.3,27.5-27.5
		C59.5,16.9,47.2,4.6,32.1,4.6L32.1,4.6z"/>
</g>
<g>
	<path class="st0" d="M32.1,11.2c11.5,0,20.9,9.4,20.9,20.9C53,43.6,43.6,53,32.1,53c-11.5,0-20.9-9.4-20.9-20.9
		C11.1,20.6,20.5,11.2,32.1,11.2 M32.1,9.3C19.5,9.3,9.2,19.5,9.2,32.1s10.2,22.8,22.8,22.8s22.8-10.2,22.8-22.8S44.6,9.3,32.1,9.3
		L32.1,9.3z"/>
</g>
<g>
	<path class="st0" d="M32.1,15.8c9,0,16.3,7.3,16.3,16.3c0,9-7.3,16.3-16.3,16.3c-9,0-16.3-7.3-16.3-16.3
		C15.8,23.1,23.1,15.8,32.1,15.8 M32.1,13.9c-10,0-18.2,8.2-18.2,18.2c0,10,8.2,18.2,18.2,18.2c10,0,18.2-8.2,18.2-18.2
		C50.2,22.1,42.1,13.9,32.1,13.9L32.1,13.9z"/>
</g>
<g>
	<path class="st0" d="M32.1,20.5c6.4,0,11.6,5.2,11.6,11.6s-5.2,11.6-11.6,11.6s-11.6-5.2-11.6-11.6S25.7,20.5,32.1,20.5 M32.1,18.6
		c-7.5,0-13.5,6-13.5,13.5c0,7.5,6,13.5,13.5,13.5s13.5-6,13.5-13.5C45.6,24.6,39.5,18.6,32.1,18.6L32.1,18.6z"/>
</g>
</svg>
