<?xml version="1.0" encoding="UTF-8"?>
<svg id="Layer_2" data-name="Layer 2" xmlns="http://www.w3.org/2000/svg" viewBox="0 0 39.01 117">
  <g id="Laag_1" data-name="Laag 1">
    <path d="m14.73,87.02c-1.58-.39-3.09-.96-4.41-1.93-.86-.63-1.57-1.39-1.96-2.41-.48-1.26-.29-2.47.36-3.63.58-1.03,1.4-1.84,2.33-2.54,1.64-1.24,3.49-2.07,5.44-2.69,1.76-.56,3.56-.91,5.4-1.07.83-.07,1.66-.1,2.5-.16,2.28.03,4.52.3,6.68,1.03,1.33.45,2.58,1.06,3.64,2.01.73.66,1.29,1.44,1.53,2.41.28,1.12.05,2.17-.51,3.16-.58,1.03-1.4,1.84-2.33,2.54-1.62,1.23-3.44,2.05-5.37,2.67-2.01.64-4.08,1.01-6.19,1.16-2.4.16-4.78.03-7.12-.55m1.71-52.79c-1.58-.17-3.11-.52-4.51-1.32-.69-.39-1.3-.89-1.75-1.54-.87-1.26-.93-2.61-.41-4.01.45-1.2,1.21-2.2,2.1-3.1,1.46-1.47,3.17-2.58,5.02-3.49,2.53-1.25,5.2-2.06,7.99-2.45,1.04-.14,2.1-.2,2.64-.25,2.25.02,3.97.2,5.62.8.77.28,1.5.64,2.14,1.16,1.64,1.3,2.13,3.14,1.35,5.11-.47,1.21-1.25,2.21-2.16,3.11-1.6,1.58-3.48,2.74-5.51,3.68-2.4,1.11-4.91,1.83-7.52,2.2-1.67.23-3.34.29-5.01.12M0,108.8v8.2h39.01v-49.45c-.58.12-1.16.25-1.74.35-1.44.24-2.89.31-4.35.25-2.49-.09-4.92-.51-7.29-1.28-2.04-.66-3.96-1.55-5.68-2.86-1.01-.77-1.9-1.65-2.52-2.77-.64-1.16-.85-2.37-.38-3.65.37-1,1.06-1.74,1.9-2.35,1.15-.83,2.44-1.34,3.8-1.69,2.12-.55,4.29-.69,6.47-.58,2.58.13,5.1.61,7.54,1.49.76.28,1.5.63,2.25.94V0H0v5.16c.78-.23,1.55-.49,2.34-.67,2.16-.51,4.35-.73,6.56-.69,2.45.05,4.85.4,7.13,1.32,1.25.5,2.4,1.15,3.34,2.14.69.72,1.16,1.56,1.28,2.57.11.91-.1,1.76-.53,2.56-.55,1.02-1.35,1.83-2.26,2.52-1.48,1.13-3.15,1.91-4.9,2.5-1.99.67-4.04,1.06-6.13,1.23-1.49.12-2.98.13-4.47-.02-.74-.07-1.48-.21-2.21-.31-.05,0-.1-.01-.15-.02v17.38c.47.12.94.23,1.41.38,2.73.84,5.28,2.05,7.58,3.76,1.38,1.03,2.61,2.2,3.53,3.67.5.8.88,1.65,1,2.6.2,1.61-.37,2.9-1.63,3.9-.94.74-2.03,1.15-3.18,1.41-1.65.38-3.32.41-5,.28-1.21-.1-2.41-.3-3.59-.58-.04-.01-.08-.03-.13-.04v46.94c2.36-1.73,4.98-2.89,7.79-3.68,2.32-.65,4.68-1,7.1-.95,1.77.04,3.51.29,5.16.98.66.27,1.27.62,1.82,1.08,1.5,1.25,1.98,2.98,1.33,4.83-.43,1.22-1.18,2.23-2.08,3.13-1.43,1.45-3.12,2.55-4.94,3.45-2.48,1.22-5.09,2.02-7.82,2.44-1.61.24-3.22.33-4.84.21-1.2-.09-2.38-.29-3.53-.68" style="fill: #f29100; stroke-width: 0px;"/>
  </g>
</svg>