<?xml version="1.0" encoding="UTF-8"?>
<svg id="Layer_2" data-name="Layer 2" xmlns="http://www.w3.org/2000/svg" viewBox="0 0 37.43 114.78">
  <g id="Laag_1" data-name="Laag 1">
    <g>
      <path d="m0,59.81c.39-.68.77-1.37,1.17-2.05.98-1.66,1.96-3.32,2.97-4.96.24-.39.61-.72.93-1.07,1.62-1.78,3.25-3.55,4.87-5.33.06-.07.1-.17.11-.26.07-1.51.15-3.02.18-4.53.02-1.1.24-2.16.45-3.24.31-1.55.62-3.11.93-4.66.31-1.56.62-3.12.93-4.68.31-1.55.62-3.11.93-4.66.27-1.36.55-2.73.81-4.09.04-.24-.02-.49-.05-.74-.14-1.05-.29-2.11-.43-3.16-.15-1.1-.31-2.2-.46-3.31-.16-1.19-.34-2.39-.48-3.58-.17-1.46-.47-2.89-.85-4.31-.07-.25-.11-.51-.18-.76-.03-.11.02-.16.13-.15.42.01.84.02,1.25.05.06,0,.12.08.16.13,1.07,1.48,2.15,2.96,3.21,4.45,2.57,3.59,5.12,7.2,7.54,10.88.9,1.36,1.73,2.76,2.6,4.13.61.96.94,1.99,1.17,3.06.23,1.07.52,2.13.77,3.19.02.09.03.19.03.29,0,3.12,0,6.24,0,9.36,0,.4.05.78.19,1.16.19.51.35,1.02.52,1.53.03.1.04.22,0,.31-.24.67-.46,1.34-.77,1.98-.19.39-.51.73-.79,1.08-.98,1.19-1.97,2.38-2.96,3.57-.09.1-.1.2-.08.32.39,2.17.78,4.33,1.16,6.5.1.54.2,1.07.28,1.61.01.07-.03.16-.08.21-1.27,1.16-2.54,2.32-3.82,3.47-.29.26-.6.5-.89.77-.39.35-.9.52-1.38.74-4.81,2.24-9.62,4.47-14.42,6.72-1.09.51-2.15,1.08-3.2,1.66-.86.48-1.61,1.09-2.3,1.75-.05.05-.11.1-.17.15v-13.51Z" style="fill: #e695ff; stroke-width: 0px;"/>
      <path d="m37.43,83.92c-1.53.83-3.05,1.65-4.58,2.48-2.07,1.12-4.13,2.24-6.19,3.36-.03.02-.06.03-.11.05-.15-.26-.29-.52-.43-.78-1.17-2.12-2.33-4.24-3.5-6.36-1.83-3.33-3.66-6.67-5.5-10-.08-.14-.08-.26-.04-.4.53-1.71,1.05-3.42,1.58-5.12.02-.08.08-.16.15-.21,2.92-2.15,5.84-4.3,8.76-6.45.05-.04.1-.07.16-.11.46.53.91,1.05,1.36,1.57.52.6,1.04,1.2,1.56,1.79.06.07.15.12.24.15,2.18.68,4.36,1.36,6.54,2.04v17.98Z" style="fill: #e695ff; stroke-width: 0px;"/>
      <path d="m0,80.19c1.56-.75,3.11-1.49,4.67-2.24,3.41-1.64,6.82-3.28,10.23-4.92.04-.02.08-.03.13-.05.25.31.5.61.74.92.74.92,1.48,1.83,2.21,2.75.05.06.08.16.08.24,0,6.6,0,13.21,0,19.81v.15c-6.03,1.19-12.05,2.38-18.07,3.57v-20.22Z" style="fill: #e695ff; stroke-width: 0px;"/>
      <path d="m37.43,42.38c-.94.34-1.87.67-2.81,1.01-1.29.46-2.57.91-3.86,1.37-.04.01-.08.03-.14.05.06-.29.11-.57.17-.85.33-1.69.67-3.39,1-5.08.07-.34.12-.69.21-1.03.09-.34,0-.65-.08-.97-.62-2.47-1.23-4.94-1.85-7.41-.2-.79-.41-1.58-.59-2.38-.08-.38-.1-.77-.14-1.16-.08-.83-.16-1.67-.24-2.5-.08-.84-.16-1.69-.24-2.53-.09-.96-.18-1.92-.28-2.89-.09-.96-.18-1.91-.27-2.87-.08-.83-.16-1.67-.24-2.5-.08-.82-.16-1.63-.23-2.45-.07-.73-.14-1.45-.2-2.18,0-.1.02-.22.08-.3,1.6-2.25,3.2-4.49,4.8-6.73.03-.04.05-.07.08-.12-.25-.29-.5-.57-.76-.86h5.57v42.38Z" style="fill: #e695ff; stroke-width: 0px;"/>
      <path d="m12.71,0c-.01.32-.01.65-.04.97,0,.07-.06.15-.12.2-.93.92-1.86,1.83-2.81,2.74-.18.17-.25.34-.25.57.02,1,.02,2.01.02,3.01,0,1.17.02,2.33.02,3.5.01,1.61.02,3.23.04,4.84,0,.86.04,1.72.02,2.57-.01.76-.08,1.52-.12,2.28-.06,1.03-.13,2.06-.2,3.09-.08,1.21-.16,2.42-.24,3.63-.08,1.22-.16,2.43-.23,3.65-.08,1.21-.16,2.41-.24,3.62-.07,1.03-.13,2.07-.2,3.1-.01.19-.02.39-.04.58,0,.06-.07.14-.13.17-1,.54-2.01,1.08-3.02,1.62-.12.07-.23.15-.33.25-1.1,1.18-2.2,2.37-3.3,3.56-.1.1-.15.21-.16.35-.07.89-.15,1.79-.23,2.68-.08.89-.19,1.77-.22,2.66-.04.99-.47,1.89-.74,2.82-.05.19-.13.36-.2.55v-15.49s.03-.09.03-.14c.05-.63.1-1.27.15-1.9.1-1.32.2-2.65.3-3.97.12-1.48.22-2.96.36-4.44.14-1.53.29-3.05.45-4.58.14-1.34.31-2.67.46-4.01.16-1.45.33-2.9.48-4.35.15-1.41.32-2.82.44-4.24.11-1.31.18-2.62.26-3.92.07-1.14.15-2.28.22-3.42.05-.85.11-1.7.16-2.55h1.57c0,.07,0,.14,0,.21,0,2.82,0,5.65,0,8.47,0,.65-.02,1.29-.05,1.94-.07,1.55-.14,3.09-.22,4.64-.09,1.96-.18,3.92-.28,5.88-.06,1.29-.14,2.58-.21,3.86-.06,1.06-.13,2.11-.2,3.17-.07,1.06-.14,2.12-.21,3.18-.07,1.02-.13,2.04-.2,3.05-.07,1.01-.13,2.02-.2,3.04,0,.05,0,.11.02.14.28.32.56.63.86.96.44-.76.88-1.49,1.31-2.23.03-.04.03-.1.03-.16.03-.77.06-1.53.09-2.3.06-1.61.12-3.21.18-4.82.05-1.27.1-2.54.15-3.82.06-1.61.12-3.22.18-4.84.05-1.27.1-2.53.15-3.8.06-1.68.13-3.35.19-5.03.05-1.42.1-2.85.16-4.27.06-1.51.12-3.02.17-4.53.04-.92.07-1.84.11-2.76h5.79Z" style="fill: #e695ff; stroke-width: 0px;"/>
      <path d="m0,113.54c.42,0,.85,0,1.27,0,.07,0,.15-.06.19-.11.93-1.25,1.85-2.5,2.77-3.75.2-.27.4-.54.6-.81.04-.06.1-.11.16-.15,3.38-2.37,6.76-4.75,10.14-7.12,2.32-1.63,4.65-3.26,6.97-4.89.05-.04.1-.07.18-.12v.2c0,2.41,0,4.82,0,7.23,0,.12-.04.21-.13.3-2.07,2.11-4.14,4.22-6.21,6.33-.68.69-1.36,1.38-2.03,2.07-.05.05-.09.14-.08.21.04.61.08,1.22.13,1.86h-.22c-4.52,0-9.03,0-13.55,0-.07,0-.13,0-.2-.01v-1.23Z" style="fill: #e695ff; stroke-width: 0px;"/>
      <path d="m37.43,95.88c-1.5.77-2.99,1.55-4.49,2.32-2.94,1.52-5.88,3.03-8.82,4.55-.05.02-.09.04-.16.08v-.18c0-2.67,0-5.33,0-8,0-.09,0-.17.11-.23,4.43-2.65,8.85-5.3,13.27-7.95.03-.02.06-.03.09-.05v9.46Z" style="fill: #e695ff; stroke-width: 0px;"/>
      <path d="m37.43,114.77c-.07,0-.14.01-.22.01-3.48,0-6.96,0-10.45,0h-.24c.04-.08.06-.13.09-.18.42-.74.82-1.49,1.26-2.22.18-.31.29-.63.34-.98.23-1.65.47-3.31.7-4.96.07-.47.13-.94.21-1.41.01-.06.06-.14.12-.17,1.84-.92,3.67-1.85,5.52-2.74.71-.34,1.47-.59,2.21-.87.15-.06.3-.1.45-.16v13.67Z" style="fill: #e695ff; stroke-width: 0px;"/>
      <path d="m1.86,0c0,1.4.03,2.81-.01,4.21-.02.83-.15,1.66-.23,2.48-.08.83-.16,1.67-.24,2.5-.09.95-.18,1.9-.27,2.85-.08.83-.16,1.66-.24,2.48-.09.97-.18,1.94-.28,2.9-.09.95-.18,1.89-.27,2.84-.1,1.03-.2,2.06-.3,3.1,0,.02-.02.04-.03.06V0h1.86Z" style="fill: #e695ff; stroke-width: 0px;"/>
    </g>
  </g>
</svg>