<?xml version="1.0" encoding="UTF-8"?>
<svg id="Layer_2" data-name="Layer 2" xmlns="http://www.w3.org/2000/svg" viewBox="0 0 39.94 124.26">
  <g id="Laag_1" data-name="Laag 1">
    <g>
      <path d="m24.81,49.29c.48,0,.81.34.88.84.07.5.84,6.01.84,7.94s-.76,7.37-.84,7.94c-.08.57-.4.84-.88.84s-.81-.26-.88-.84c-.07-.58-.84-6.01-.84-7.94s.76-7.35.84-7.94c.08-.59.4-.84.88-.84" style="fill: #e695ff; stroke-width: 0px;"/>
      <path d="m21.48,114.08c0,1.93-.76,7.37-.84,7.94-.08.57-.4.84-.88.84s-.81-.26-.88-.84c-.07-.58-.84-6.01-.84-7.94s.76-7.35.84-7.94c.08-.59.4-.84.88-.84s.81.34.88.84c.07.5.84,6.01.84,7.94" style="fill: #e695ff; stroke-width: 0px;"/>
      <path d="m20.48,55.52c.48,0,.81.34.88.84.07.5.84,6.01.84,7.94s-.76,7.37-.84,7.94c-.08.57-.4.84-.88.84s-.81-.26-.88-.84c-.07-.58-.84-6.01-.84-7.94s.76-7.35.84-7.94c.08-.59.4-.84.88-.84" style="fill: #e695ff; stroke-width: 0px;"/>
      <path d="m15.11,76.53c-.07-.58-.84-6.01-.84-7.94s.76-7.35.84-7.94c.08-.59.4-.84.88-.84s.81.34.88.84c.07.5.84,6.01.84,7.94s-.76,7.37-.84,7.94c-.08.57-.4.84-.88.84s-.81-.26-.88-.84" style="fill: #e695ff; stroke-width: 0px;"/>
      <path d="m32.67,83.23c-.07-.58-.84-6.01-.84-7.94s.76-7.35.84-7.94c.08-.59.4-.84.88-.84s.81.34.88.84c.07.5.84,6.01.84,7.94s-.76,7.37-.84,7.94c-.08.57-.4.84-.88.84s-.81-.26-.88-.84" style="fill: #e695ff; stroke-width: 0px;"/>
      <path d="m23.98,73.84c.48,0,.81.34.88.84.07.5.84,6.01.84,7.94s-.76,7.37-.84,7.94c-.08.57-.4.84-.88.84s-.81-.26-.88-.84c-.07-.58-.84-6.01-.84-7.94s.76-7.35.84-7.94c.08-.59.4-.84.88-.84" style="fill: #e695ff; stroke-width: 0px;"/>
      <path d="m32.54,109.02c-.07-.58-.84-6.01-.84-7.94s.76-7.35.84-7.94c.08-.59.4-.84.88-.84s.81.34.88.84c.07.5.84,6.01.84,7.94s-.76,7.37-.84,7.94c-.08.57-.4.84-.88.84s-.81-.26-.88-.84" style="fill: #e695ff; stroke-width: 0px;"/>
      <path d="m24.12,116.79c-.48,0-.81-.26-.88-.84-.07-.58-.84-6.01-.84-7.94s.76-7.35.84-7.94c.08-.59.4-.84.88-.84s.81.34.88.84c.07.5.84,6.01.84,7.94s-.76,7.37-.84,7.94c-.08.57-.4.84-.88.84" style="fill: #e695ff; stroke-width: 0px;"/>
      <path d="m28.05,111.91c-.07-.58-.84-6.01-.84-7.94s.76-7.35.84-7.94c.08-.59.4-.84.88-.84s.81.34.88.84c.07.5.84,6.01.84,7.94s-.76,7.37-.84,7.94c-.08.57-.4.84-.88.84s-.81-.26-.88-.84" style="fill: #e695ff; stroke-width: 0px;"/>
      <path d="m37.25,105.86c-.07-.58-.84-6.01-.84-7.94s.76-7.35.84-7.94c.08-.59.4-.84.88-.84s.81.34.88.84c.07.5.84,6.01.84,7.94s-.76,7.37-.84,7.94-.4.84-.88.84-.81-.26-.88-.84" style="fill: #e695ff; stroke-width: 0px;"/>
      <path d="m28.08,86.46c-.07-.58-.84-6.01-.84-7.94s.76-7.35.84-7.94c.08-.59.4-.84.88-.84s.81.34.88.84c.07.5.84,6.01.84,7.94s-.76,7.37-.84,7.94c-.08.57-.4.84-.88.84s-.81-.26-.88-.84" style="fill: #e695ff; stroke-width: 0px;"/>
      <path d="m16.82,94.54c0,1.93-.76,7.37-.84,7.94-.08.57-.4.84-.88.84s-.81-.26-.88-.84c-.07-.58-.84-6.01-.84-7.94s.76-7.35.84-7.94c.08-.59.4-.84.88-.84s.81.34.88.84c.07.5.84,6.01.84,7.94" style="fill: #e695ff; stroke-width: 0px;"/>
      <path d="m37.26,80.1c-.07-.58-.84-6.01-.84-7.94s.76-7.35.84-7.94c.08-.59.4-.84.88-.84s.81.34.88.84c.07.5.84,6.01.84,7.94s-.76,7.37-.84,7.94c-.08.57-.4.84-.88.84s-.81-.26-.88-.84" style="fill: #e695ff; stroke-width: 0px;"/>
      <path d="m20.02,27.12c.48,0,.81.34.88.84.07.5.84,6.01.84,7.94s-.76,7.37-.84,7.94c-.08.57-.4.84-.88.84s-.81-.26-.88-.84c-.07-.58-.84-6.01-.84-7.94s.76-7.35.84-7.94c.08-.59.4-.84.88-.84" style="fill: #e695ff; stroke-width: 0px;"/>
      <path d="m17.48,40.29c0,1.93-.76,7.37-.84,7.94-.08.57-.4.84-.88.84s-.81-.26-.88-.84c-.07-.58-.84-6.01-.84-7.94s.76-7.35.84-7.94c.08-.59.4-.84.88-.84s.81.34.88.84c.07.5.84,6.01.84,7.94" style="fill: #e695ff; stroke-width: 0px;"/>
      <path d="m27.83,32.05c-.07-.58-.84-6.01-.84-7.94s.76-7.35.84-7.94c.08-.59.4-.84.88-.84s.81.34.88.84c.07.5.84,6.01.84,7.94s-.76,7.37-.84,7.94c-.08.57-.4.84-.88.84s-.81-.26-.88-.84" style="fill: #e695ff; stroke-width: 0px;"/>
      <path d="m19.56,79.89c.48,0,.81.34.88.84.07.5.84,6.01.84,7.94s-.76,7.37-.84,7.94c-.08.57-.4.84-.88.84s-.81-.26-.88-.84c-.07-.58-.84-6.01-.84-7.94s.76-7.35.84-7.94c.08-.59.4-.84.88-.84" style="fill: #e695ff; stroke-width: 0px;"/>
      <path d="m24.12,20.97c.48,0,.81.34.88.84.07.5.84,6.01.84,7.94s-.76,7.37-.84,7.94c-.08.57-.4.84-.88.84s-.81-.26-.88-.84c-.07-.58-.84-6.01-.84-7.94s.76-7.35.84-7.94c.08-.59.4-.84.88-.84" style="fill: #e695ff; stroke-width: 0px;"/>
      <path d="m32.42,27.54c-.07-.58-.84-6.01-.84-7.94s.76-7.35.84-7.94c.08-.59.4-.84.88-.84s.81.34.88.84c.07.5.84,6.01.84,7.94s-.76,7.37-.84,7.94c-.08.57-.4.84-.88.84s-.81-.26-.88-.84" style="fill: #e695ff; stroke-width: 0px;"/>
      <path d="m28.35,59.84c-.07-.58-.84-6.01-.84-7.94s.76-7.35.84-7.94c.08-.59.4-.84.88-.84s.81.34.88.84c.07.5.84,6.01.84,7.94s-.76,7.37-.84,7.94c-.08.57-.4.84-.88.84s-.81-.26-.88-.84" style="fill: #e695ff; stroke-width: 0px;"/>
      <path d="m14.85,23.46c-.07-.58-.84-6.01-.84-7.94s.76-7.35.84-7.94c.08-.59.4-.84.88-.84s.81.34.88.84c.07.5.84,6.01.84,7.94s-.76,7.37-.84,7.94-.4.84-.88.84-.81-.26-.88-.84" style="fill: #e695ff; stroke-width: 0px;"/>
      <path d="m32.75,56.34c-.07-.58-.84-6.01-.84-7.94s.76-7.35.84-7.94c.08-.59.4-.84.88-.84s.81.34.88.84c.07.5.84,6.01.84,7.94s-.76,7.37-.84,7.94-.4.84-.88.84-.81-.26-.88-.84" style="fill: #e695ff; stroke-width: 0px;"/>
      <path d="m37.34,53.48c-.07-.58-.84-6.01-.84-7.94s.76-7.35.84-7.94c.08-.59.4-.84.88-.84s.81.34.88.84c.07.5.84,6.01.84,7.94s-.76,7.37-.84,7.94c-.08.57-.4.84-.88.84s-.81-.26-.88-.84" style="fill: #e695ff; stroke-width: 0px;"/>
      <path d="m19.76,3.46c.48,0,.81.34.88.84.07.5.84,6.01.84,7.94s-.76,7.37-.84,7.94c-.08.57-.4.84-.88.84s-.81-.26-.88-.84c-.07-.58-.84-6.01-.84-7.94s.76-7.35.84-7.94c.08-.59.4-.84.88-.84" style="fill: #e695ff; stroke-width: 0px;"/>
      <path d="m37.01,25.26c-.07-.58-.84-6.01-.84-7.94s.76-7.35.84-7.94c.08-.59.4-.84.88-.84s.81.34.88.84c.07.5.84,6.01.84,7.94s-.76,7.37-.84,7.94c-.08.57-.4.84-.88.84s-.81-.26-.88-.84" style="fill: #e695ff; stroke-width: 0px;"/>
      <path d="m7.73,69.72c.07.5.84,6.01.84,7.94s-.76,7.37-.84,7.94c-.08.57-.4.84-.88.84h0c-.48,0-.81-.26-.88-.84-.07-.58-.84-6.01-.84-7.94s.76-7.35.84-7.94c.08-.59.4-.84.88-.84h0c.48,0,.81.34.88.84" style="fill: #e695ff; stroke-width: 0px;"/>
      <path d="m11.78,91.49c.07.5.84,6.01.84,7.94s-.76,7.37-.84,7.94c-.08.57-.4.84-.88.84s-.81-.26-.88-.84c-.07-.58-.84-6.01-.84-7.94s.76-7.35.84-7.94c.08-.59.4-.84.88-.84s.81.34.88.84" style="fill: #e695ff; stroke-width: 0px;"/>
      <path d="m3.07,72.45c.07.5.84,6.01.84,7.94s-.76,7.37-.84,7.94c-.08.57-.4.84-.88.84s-.81-.26-.88-.84c-.07-.58-.84-6.01-.84-7.94s.76-7.35.84-7.94c.08-.59.4-.84.88-.84s.81.34.88.84" style="fill: #e695ff; stroke-width: 0px;"/>
      <path d="m3.04,43.97c.07.5.84,6.01.84,7.94s-.76,7.37-.84,7.94c-.08.57-.4.84-.88.84s-.81-.26-.88-.84c-.07-.58-.84-6.01-.84-7.94s.76-7.35.84-7.94c.08-.59.4-.84.88-.84s.81.34.88.84" style="fill: #e695ff; stroke-width: 0px;"/>
      <path d="m12.39,65.88c.07.5.84,6.01.84,7.94s-.76,7.37-.84,7.94c-.08.57-.4.84-.88.84s-.81-.26-.88-.84c-.07-.58-.84-6.01-.84-7.94s.76-7.35.84-7.94.4-.84.88-.84.81.34.88.84" style="fill: #e695ff; stroke-width: 0px;"/>
      <path d="m7.72,14.91c.07.5.84,6.01.84,7.94s-.76,7.37-.84,7.94c-.08.57-.4.84-.88.84s-.81-.26-.88-.84c-.07-.58-.84-6.01-.84-7.94s.76-7.35.84-7.94c.08-.59.4-.84.88-.84s.81.34.88.84" style="fill: #e695ff; stroke-width: 0px;"/>
      <path d="m12.25,12.84c.07.5.84,6.01.84,7.94s-.76,7.37-.84,7.94c-.08.57-.4.84-.88.84s-.81-.26-.88-.84c-.07-.58-.84-6.01-.84-7.94s.76-7.35.84-7.94c.08-.59.4-.84.88-.84s.81.34.88.84" style="fill: #e695ff; stroke-width: 0px;"/>
      <path d="m7.68,41.79c.07.5.84,6.01.84,7.94s-.76,7.37-.84,7.94c-.08.57-.4.84-.88.84s-.81-.26-.88-.84c-.07-.58-.84-6.01-.84-7.94s.76-7.35.84-7.94c.08-.59.4-.84.88-.84s.81.34.88.84" style="fill: #e695ff; stroke-width: 0px;"/>
      <path d="m2.95,17.4c.07.5.84,6.01.84,7.94s-.76,7.37-.84,7.94c-.08.57-.4.84-.88.84s-.81-.26-.88-.84c-.07-.58-.84-6.01-.84-7.94s.76-7.35.84-7.94c.08-.59.4-.84.88-.84s.81.34.88.84" style="fill: #e695ff; stroke-width: 0px;"/>
      <path d="m12.16,37.6c.07.5.84,6.01.84,7.94s-.76,7.37-.84,7.94c-.08.57-.4.84-.88.84s-.81-.26-.88-.84c-.07-.58-.84-6.01-.84-7.94s.76-7.35.84-7.94c.08-.59.4-.84.88-.84s.81.34.88.84" style="fill: #e695ff; stroke-width: 0px;"/>
      <path d="m7.19,96.26c.07.5.84,6.01.84,7.94s-.76,7.37-.84,7.94c-.08.57-.4.84-.88.84s-.81-.26-.88-.84c-.07-.58-.84-6.01-.84-7.94s.76-7.35.84-7.94c.08-.59.4-.84.88-.84s.81.34.88.84" style="fill: #e695ff; stroke-width: 0px;"/>
      <path d="m2.6,99.6c.07.5.84,6.01.84,7.94s-.76,7.37-.84,7.94-.4.84-.88.84-.81-.26-.88-.84c-.07-.58-.84-6.01-.84-7.94s.76-7.35.84-7.94c.08-.59.4-.84.88-.84s.81.34.88.84" style="fill: #e695ff; stroke-width: 0px;"/>
      <path d="m30.26.01c-.12,2.28-.75,6.78-.82,7.3-.08.57-.4.84-.88.84h0c-.31,0-.55-.1-.71-.33-.09-.13-.16-.3-.18-.52-.06-.52-.7-5.02-.82-7.3h3.4s0,0,0,.01h0Z" style="fill: #e695ff; stroke-width: 0px;"/>
      <path d="m25.48.01c.19,1.61.36,3.33.36,4.24,0,1.93-.76,7.37-.84,7.94-.08.57-.4.84-.88.84-.31,0-.55-.1-.71-.33-.09-.13-.16-.3-.18-.52-.07-.58-.84-6.01-.84-7.94,0-.92.17-2.64.36-4.24h2.72s0,0,0,.01h0Z" style="fill: #e695ff; stroke-width: 0px;"/>
      <path d="m2.89,122.42c.02.17.12.88.25,1.84H.88c.12-.94.22-1.65.25-1.84.08-.59.4-.84.88-.84s.81.34.88.84" style="fill: #e695ff; stroke-width: 0px;"/>
      <path d="m7.47,119.13c.05.33.4,2.89.64,5.13h-3.04c.23-2.22.58-4.74.64-5.13.08-.59.4-.84.88-.84s.81.34.88.84" style="fill: #e695ff; stroke-width: 0px;"/>
      <path d="m10.13,114.68c.08-.59.4-.84.88-.84s.81.34.88.84c.07.5.84,6.01.84,7.94,0,.41-.04.99-.09,1.65h-3.26c-.06-.66-.09-1.23-.09-1.65,0-1.93.76-7.35.84-7.94" style="fill: #e695ff; stroke-width: 0px;"/>
      <path d="m14.5,109.52c.08-.59.4-.84.88-.84s.81.34.88.84c.07.5.84,6.01.84,7.94,0,1.47-.44,4.97-.69,6.81h-2.07c-.24-1.84-.69-5.34-.69-6.81,0-1.93.76-7.35.84-7.94" style="fill: #e695ff; stroke-width: 0px;"/>
      <path d="m28.77,120.74c.48,0,.81.34.88.84.03.21.19,1.32.35,2.68h-2.47c.17-1.33.32-2.43.35-2.68.08-.59.4-.84.88-.84" style="fill: #e695ff; stroke-width: 0px;"/>
      <path d="m33.57,117.46c.48,0,.81.34.88.84.05.37.5,3.58.72,5.97h-3.2c.22-2.37.66-5.53.72-5.97.08-.59.4-.84.88-.84" style="fill: #e695ff; stroke-width: 0px;"/>
      <path d="m38.16,116.32c.48,0,.81.34.88.84.06.44.67,4.76.81,7.1h-3.38c.14-2.33.74-6.59.81-7.1.08-.59.4-.84.88-.84" style="fill: #e695ff; stroke-width: 0px;"/>
      <path d="m34.26.01h0c-.18,1.46-.35,2.69-.39,2.95-.08.57-.4.84-.88.84-.31,0-.55-.1-.71-.33-.09-.13-.16-.3-.18-.52-.03-.26-.2-1.49-.38-2.95h2.53s0,0,0,.01" style="fill: #e695ff; stroke-width: 0px;"/>
      <path d="m10.69,2.72c-.48,0-.81-.26-.88-.84-.02-.19-.12-.93-.25-1.89h2.26c-.12.96-.23,1.7-.25,1.89-.08.57-.4.84-.88.84" style="fill: #e695ff; stroke-width: 0px;"/>
      <path d="m6.53,5.69c-.48,0-.81-.26-.88-.84-.04-.37-.37-2.71-.61-4.86h2.98c-.23,2.15-.56,4.5-.61,4.86-.08.57-.4.84-.88.84" style="fill: #e695ff; stroke-width: 0px;"/>
      <path d="m1.94,8.29c-.48,0-.81-.26-.88-.84C.99,6.92.32,2.22.23,0h3.42c-.1,2.22-.76,6.93-.83,7.46-.08.57-.4.84-.88.84" style="fill: #e695ff; stroke-width: 0px;"/>
    </g>
  </g>
</svg>